{"title":"Selma.2014.DUAL.720p.BluRay.x264.By.GiGAFTP","uid":12194084,"size":6234289402,"categoryP":"video","categoryS":"hd___movies","magnet":"?xt=urn:btih:a3a28150f157c348aaa3c1149f2ca3fddfead40a&amp;dn=Selma.2014.DUAL.720p.BluRay.x264.By.GiGAFTP&amp;tr=udp%3A%2F%2Ftracker.openbittorrent.com%3A80&amp;tr=udp%3A%2F%2Fopen.demonii.com%3A1337&amp;tr=udp%3A%2F%2Ftracker.coppersurfer.tk%3A6969&amp;tr=udp%3A%2F%2Fexodus.desync.com%3A6969","seeders":0,"leechers":1,"uploader":"xmorobertson","files":2,"time":1438706821,"description":"Storyline\n\nThe unforgettable true story chronicles the tumultuous three-month period in 1965, when Dr. Martin Luther King, Jr. led a dangerous campaign to secure equal voting rights in the face of violent opposition. The epic march from Selma to Montgomery culminated in President Johnson signing the Voting Rights Act of 1965, one of the most significant victories for the civil rights movement. Director Ava DuVernay's &quot;Selma&quot; tells the story of how the revered leader and visionary Dr. Martin Luther King, Jr and his brothers and sisters in the movement prompted change that forever altered history. Written by Miss W J Mcdermott\n\n\nGeneral\nUnique ID                   : 198713263551909251113257354040334383811 (0x957EC84F708F85AFB8B6002ECAA87AC3)\nComplete name               : D:Selma.2014.DUAL.720p.BluRay.x264.By.GiGAFTPSelma.2014.DUAL.720p.BluRay.x264.By.GiGAFTP.mkv\nFormat                      : Matroska\nFormat version              : Version 2\nFile size                   : 5.81 GiB\nDuration                    : 2h 8mn\nOverall bit rate            : 6 481 Kbps\nEncoded date                : UTC 2015-08-01 20:38:20\nWriting application         : mkvmerge v2.9.8 ('C'est le bon') built on Aug 13 2009 12:49:06\nWriting library             : libebml v0.7.7 + libmatroska v0.8.1\n\nVideo\nID                          : 1\nFormat                      : AVC\nFormat/Info                 : Advanced Video Codec\nFormat profile              : &lt;a class=&quot;__cf_email__&quot; href=&quot;/cdn-cgi/l/email-protection&quot; data-cfemail=&quot;d59dbcb2bd9599e1fbe4&quot;&gt;[email&amp;#160;protected]&lt;/a&gt;&lt;script data-cfhash='f9e31' type=&quot;text/javascript&quot;&gt;\n/* &lt;![CDATA[ */!function(){try{var t=&quot;currentScript&quot;in document?document.currentScript:function(){for(var t=document.getElementsByTagName(&quot;script&quot;),e=t.length;e--;)if(t[e].getAttribute(&quot;data-cfhash&quot;))return t[e]}();if(t&amp;&amp;t.previousSibling){var e,r,n,i,c=t.previousSibling,a=c.getAttribute(&quot;data-cfemail&quot;);if(a){for(e=&quot;&quot;,r=parseInt(a.substr(0,2),16),n=2;a.length-n;n+=2)i=parseInt(a.substr(n,2),16)^r,e+=String.fromCharCode(i);e=document.createTextNode(e),c.parentNode.replaceChild(e,c)}t.parentNode.removeChild(t);}}catch(u){}}()/* ]]&gt; */&lt;/script&gt;\nFormat settings, CABAC      : Yes\nFormat settings, ReFrames   : 5 frames\nCodec ID                    : V_MPEG4/ISO/AVC\nDuration                    : 2h 8mn\nBit rate                    : 4 585 Kbps\nWidth                       : 1 280 pixels\nHeight                      : 536 pixels\nDisplay aspect ratio        : 2.40:1\nFrame rate mode             : Constant\nFrame rate                  : 23.976 fps\nColor space                 : YUV\nChroma subsampling          : 4:2:0\nBit depth                   : 8 bits\nScan type                   : Progressive\nBits/(Pixel*Frame)          : 0.279\nStream size                 : 3.99 GiB (69%)\nWriting library             : x264 core 144 r2525 40bb568\nEncoding settings           : cabac=1 / ref=5 / deblock=1:0:0 / analyse=0x3:0x133 / me=umh / subme=7 / psy=1 / psy_rd=1.00:0.00 / mixed_ref=1 / me_range=16 / chroma_me=1 / trellis=1 / 8x8dct=1 / cqm=0 / deadzone=21,11 / fast_pskip=0 / chroma_qp_offset=-2 / threads=60 / lookahead_threads=4 / sliced_threads=0 / nr=0 / decimate=1 / interlaced=0 / bluray_compat=0 / constrained_intra=0 / bframes=3 / b_pyramid=2 / b_adapt=1 / b_bias=0 / direct=1 / weightb=1 / open_gop=0 / weightp=2 / keyint=250 / keyint_min=23 / scenecut=40 / intra_refresh=0 / rc_lookahead=40 / rc=2pass / mbtree=1 / bitrate=4585 / ratetol=1.0 / qcomp=0.60 / qpmin=0 / qpmax=69 / qpstep=4 / cplxblur=20.0 / qblur=0.5 / ip_ratio=1.40 / aq=1:1.00\nLanguage                    : English\nDefault                     : No\nForced                      : No\n\nAudio #1\nID                          : 2\nFormat                      : AC-3\nFormat/Info                 : Audio Coding 3\nMode extension              : CM (complete main)\nFormat settings, Endianness : Big\nCodec ID                    : A_AC3\nDuration                    : 2h 8mn\nBit rate mode               : Constant\nBit rate                    : 384 Kbps\nChannel(s)                  : 2 channels\nChannel positions           : Front: L R\nSampling rate               : 44.1 KHz\nCompression mode            : Lossy\nStream size                 : 352 MiB (6%)\nTitle                       : @GiGAFTP\nDefault                     : Yes\nForced                      : No\n\nAudio #2\nID                          : 3\nFormat                      : DTS\nFormat/Info                 : Digital Theater Systems\nMode                        : 16\nFormat settings, Endianness : Big\nCodec ID                    : A_DTS\nDuration                    : 2h 8mn\nBit rate mode               : Constant\nBit rate                    : 1 509 Kbps\nChannel(s)                  : 6 channels\nChannel positions           : Front: L C R, Side: L R, LFE\nSampling rate               : 48.0 KHz\nBit depth                   : 24 bits\nCompression mode            : Lossy\nDelay relative to video     : 11ms\nStream size                 : 1.35 GiB (23%)\nLanguage                    : English\nDefault                     : No\nForced                      : No\n\nMenu\n00:00:00.000                : en:00:00:00.000\n00:09:19.392                : en:00:09:19.392\n00:13:34.272                : en:00:13:34.272\n00:17:25.544                : en:00:17:25.544\n00:25:48.547                : en:00:25:48.547\n00:32:36.913                : en:00:32:36.913\n00:45:28.601                : en:00:45:28.601\n00:56:27.134                : en:00:56:27.134\n01:10:35.398                : en:01:10:35.398\n01:19:50.244                : en:01:19:50.244\n01:25:43.555                : en:01:25:43.555\n01:33:33.358                : en:01:33:33.358\n01:41:50.438                : en:01:41:50.438\n01:48:56.780                : en:01:48:56.780\n01:53:34.516                : en:01:53:34.516\n01:59:54.145                : en:01:59:54.145","torrent":{"xt":"urn:btih:a3a28150f157c348aaa3c1149f2ca3fddfead40a","amp;dn":"Selma.2014.DUAL.720p.BluRay.x264.By.GiGAFTP","amp;tr":["udp%3A%2F%2Ftracker.openbittorrent.com%3A80","udp%3A%2F%2Fopen.demonii.com%3A1337","udp%3A%2F%2Ftracker.coppersurfer.tk%3A6969","udp%3A%2F%2Fexodus.desync.com%3A6969"],"infoHash":"a3a28150f157c348aaa3c1149f2ca3fddfead40a","infoHashBuffer":{"type":"Buffer","data":[163,162,129,80,241,87,195,72,170,163,193,20,159,44,163,253,223,234,212,10]},"announce":[],"urlList":[]}}